<?xml version="1.0" encoding="UTF-8" standalone="no"?>
<!DOCTYPE svg PUBLIC "-//W3C//DTD SVG 1.1//EN"
 "http://www.w3.org/Graphics/SVG/1.1/DTD/svg11.dtd">
<!-- Generated by graphviz version 7.0.5 (20221231.0122)
 -->
<!-- Title: snakemake_dag Pages: 1 -->
<svg width="119pt" height="116pt"
 viewBox="0.00 0.00 119.00 116.00" xmlns="http://www.w3.org/2000/svg" xmlns:xlink="http://www.w3.org/1999/xlink">
<g id="graph0" class="graph" transform="scale(1 1) rotate(0) translate(4 112)">
<title>snakemake_dag</title>
<polygon fill="white" stroke="none" points="-4,4 -4,-112 115,-112 115,4 -4,4"/>
<!-- 0 -->
<g id="node1" class="node">
<title>0</title>
<path fill="none" stroke="#d85656" stroke-width="2" d="M99,-36C99,-36 12,-36 12,-36 6,-36 0,-30 0,-24 0,-24 0,-12 0,-12 0,-6 6,0 12,0 12,0 99,0 99,0 105,0 111,-6 111,-12 111,-12 111,-24 111,-24 111,-30 105,-36 99,-36"/>
<text text-anchor="middle" x="55.5" y="-15.5" font-family="sans" font-size="10.00">umap_param_sweep</text>
</g>
<!-- 1 -->
<g id="node2" class="node">
<title>1</title>
<path fill="none" stroke="#59d856" stroke-width="2" d="M92.5,-108C92.5,-108 18.5,-108 18.5,-108 12.5,-108 6.5,-102 6.5,-96 6.5,-96 6.5,-84 6.5,-84 6.5,-78 12.5,-72 18.5,-72 18.5,-72 92.5,-72 92.5,-72 98.5,-72 104.5,-78 104.5,-84 104.5,-84 104.5,-96 104.5,-96 104.5,-102 98.5,-108 92.5,-108"/>
<text text-anchor="middle" x="55.5" y="-87.5" font-family="sans" font-size="10.00">preprocess_batch</text>
</g>
<!-- 1&#45;&gt;0 -->
<g id="edge1" class="edge">
<title>1&#45;&gt;0</title>
<path fill="none" stroke="grey" stroke-width="2" d="M55.5,-71.34C55.5,-64.75 55.5,-57.08 55.5,-49.67"/>
<polygon fill="grey" stroke="grey" stroke-width="2" points="59,-49.93 55.5,-39.93 52,-49.93 59,-49.93"/>
</g>
</g>
</svg>
